#!OML:ASF E:\Style4\Style4.ASF
:FULLY-SPECIFIED
:DEGREES
4120
root 2.27222 17.7849 0.343109 4.59248 -9.24999 11.3698
lowerback 8.2811 -0.270123 8.47021
upperback 1.44191 0.571315 5.95671
thorax -3.12912 0.211872 1.39922
lowerneck -1.2993 6.22112 1.26599
upperneck 9.59141 9.04807 -7.86831
head 3.86439 4.25741 -2.49144
rclavicle 3.18055e-015 2.54444e-014
rhumerus -39.8713 -1.03681 -79.239
rradius 64.0393
rwrist 27.0579
rhand 5.12345 -7.14709
rfingers 7.12502
rthumb 30.4877 -34.6449
lclavicle 3.18055e-015 2.54444e-014
lhumerus -43.9738 -27.7154 107.828
lradius 46.6945
lwrist 22.0231
lhand 1.21965 33.885
lfingers 7.12502
lthumb 26.7581 62.0126
rfemur -18.3527 10.5813 -1.89305
rtibia 32.8484
rfoot -19.5105 -14.1792
rtoes -18.7167
lfemur -2.51341 4.49661 -40.0434
ltibia 7.71257
lfoot -13.5358 12.6468
ltoes -10.8944
4121
root 2.28711 17.7702 0.331171 4.48142 -9.7963 11.5153
lowerback 8.41655 -0.397246 8.36281
upperback 1.75598 0.380648 6.04084
thorax -2.8832 0.129668 1.56553
lowerneck -1.45523 6.33212 1.53997
upperneck 10.0786 9.25662 -8.19062
head 4.12011 4.34142 -2.63641
rclavicle -5.56597e-015 -1.145e-013
rhumerus -39.2699 -0.961523 -79.4015
rradius 64.3114
rwrist 27.447
rhand 5.15447 -7.00899
rfingers 7.12502
rthumb 30.5173 -34.5013
lclavicle -5.56597e-015 -1.145e-013
lhumerus -43.9042 -27.6398 107.704
lradius 47.049
lwrist 22.2252
lhand 0.709653 33.3465
lfingers 7.12502
lthumb 26.2699 61.5478
rfemur -18.8478 10.8192 -2.15613
rtibia 33.3382
rfoot -19.6599 -13.9181
rtoes -18.1674
lfemur -2.77501 5.02692 -40.2782
ltibia 8.07504
lfoot -13.7638 12.4905
ltoes -10.6205
4122
root 2.29979 17.7582 0.318655 4.3214 -10.3088 11.6747
lowerback 8.56993 -0.57886 8.1631
upperback 2.11523 0.108454 6.16002
thorax -2.60155 0.00832153 1.82835
lowerneck -1.63495 6.48552 1.51266
upperneck 10.8046 9.56772 -8.63558
head 3.98724 4.4292 -2.46637
rclavicle -1.59028e-014 6.36111e-015
rhumerus -38.6647 -0.577666 -79.5993
rradius 64.6773
rwrist 27.7505
rhand 5.18922 -6.86067
rfingers 7.12502
rthumb 30.5504 -34.3468
lclavicle -1.59028e-014 6.36111e-015
lhumerus -43.7947 -27.4155 107.573
lradius 47.4922
lwrist 22.5075
lhand 0.378009 33.1789
lfingers 7.12502
lthumb 25.9524 61.4272
rfemur -19.2979 11.1076 -2.4109
rtibia 33.8241
rfoot -19.7485 -13.7558
rtoes -17.8905
lfemur -3.0141 5.53938 -40.5151
ltibia 8.49622
lfoot -14.01 12.3837
ltoes -10.3883
4123
root 2.31076 17.7462 0.30689 4.1102 -10.7743 11.8105
lowerback 8.79535 -0.837402 7.89026
upperback 2.46162 -0.260245 6.32804
thorax -2.37224 -0.163766 2.19518
lowerneck -1.76234 6.66723 1.33149
upperneck 11.25 9.88025 -8.8138
head 4.16137 4.54949 -2.46457
rclavicle -8.74653e-015 6.99722e-014
rhumerus -38.0659 0.0634782 -79.822
rradius 64.9886
rwrist 28.0992
rhand 5.16804 -6.72409
rfingers 7.12502
rthumb 30.5302 -34.214
lclavicle -8.74653e-015 6.99722e-014
lhumerus -43.7518 -26.8831 107.41
lradius 48.0386
lwrist 22.7454
lhand 0.0603384 33.0288
lfingers 7.12502
lthumb 25.6482 61.3213
rfemur -19.6423 11.3609 -2.59978
rtibia 34.2717
rfoot -19.717 -13.7236
rtoes -18.1388
lfemur -3.23746 6.02785 -40.7074
ltibia 9.0134
lfoot -14.3101 12.267
ltoes -10.2362
4124
root 2.31849 17.7338 0.294589 3.89252 -11.2358 11.8901
lowerback 9.03842 -1.06142 7.69235
upperback 2.80542 -0.576911 6.43208
thorax -2.14995 -0.312303 2.44902
lowerneck -1.83065 6.78233 1.32731
upperneck 11.6382 10.0976 -9.0633
head 4.3154 4.62853 -2.5198
rclavicle -4.77083e-015 -1.59028e-014
rhumerus -37.503 0.565858 -80.1024
rradius 65.2631
rwrist 28.4421
rhand 5.0073 -6.55196
rfingers 7.12502
rthumb 30.3769 -34.0703
lclavicle -4.77083e-015 -1.59028e-014
lhumerus -43.7897 -26.3493 107.133
lradius 48.6512
lwrist 22.8194
lhand -0.0349232 32.9572
lfingers 7.12502
lthumb 25.5569 61.2627
rfemur -19.9441 11.5961 -2.70905
rtibia 34.6899
rfoot -19.7032 -13.6482
rtoes -18.5161
lfemur -3.50299 6.5205 -40.8389
ltibia 9.63036
lfoot -14.6516 12.1644
ltoes -10.0584
4125
root 2.32382 17.7215 0.281182 3.65952 -11.7333 11.9656
lowerback 9.30557 -1.26722 7.47473
upperback 3.16469 -0.87212 6.47522
thorax -1.9216 -0.451284 2.64856
lowerneck -1.91499 6.86247 1.38752
upperneck 11.9954 10.2637 -9.31925
head 4.46398 4.68396 -2.58971
rclavicle -1.90833e-014 5.40694e-014
rhumerus -36.9916 1.07075 -80.4722
rradius 65.5946
rwrist 28.673
rhand 4.68068 -6.21533
rfingers 7.12502
rthumb 30.0654 -33.7907
lclavicle -1.90833e-014 5.40694e-014
lhumerus -43.8235 -25.7926 106.72
lradius 49.3492
lwrist 22.9596
lhand -0.0472883 33.0928
lfingers 7.12502
lthumb 25.5451 61.4
rfemur -20.2339 11.8347 -2.81288
rtibia 35.0752
rfoot -19.8002 -13.3966
rtoes -18.4796
lfemur -3.8677 7.04915 -40.9707
ltibia 10.4239
lfoot -15.1086 12.0249
ltoes -9.71505
4126
root 2.32875 17.7079 0.268251 3.37092 -12.2288 12.0131
lowerback 9.59672 -1.48335 7.24708
upperback 3.57255 -1.18478 6.51785
thorax -1.6522 -0.599403 2.856
lowerneck -1.98393 6.93194 1.39333
upperneck 12.2104 10.4088 -9.59307
head 4.56453 4.73071 -2.66005
rclavicle -3.18055e-015 3.81667e-014
rhumerus -36.3654 1.61836 -80.8467
rradius 65.8487
rwrist 28.8445
rhand 4.41934 -6.00302
rfingers 7.12502
rthumb 29.816 -33.6235
lclavicle -3.18055e-015 3.81667e-014
lhumerus -43.8742 -25.1379 106.298
lradius 50.121
lwrist 23.163
lhand -0.232711 33.0493
lfingers 7.12502
lthumb 25.3675 61.3819
rfemur -20.4529 12.1122 -2.87602
rtibia 35.4499
rfoot -19.961 -13.093
rtoes -18.1579
lfemur -4.24712 7.15532 -41.0417
ltibia 11.3658
lfoot -15.5566 12.3904
ltoes -9.65953
